<?xml version="1.0" standalone="no"?>
<!DOCTYPE svg PUBLIC "-//W3C//DTD SVG 20010904//EN"
 "http://www.w3.org/TR/2001/REC-SVG-20010904/DTD/svg10.dtd">
<svg version="1.0" xmlns="http://www.w3.org/2000/svg"
 width="600.000000pt" height="400.000000pt" viewBox="0 0 1500.000000 1500.000000"
 preserveAspectRatio="xMidYMid meet">
<metadata>
Created by potrace 1.16, written by Peter Selinger 2001-2019
</metadata>
<g transform="translate(0.000000,1500.000000) scale(0.100000,-0.100000)"
fill="#000000" stroke="none">
<path d="M12 10269 c2 -4 102 -138 223 -299 l220 -292 165 6 c149 6 374 16
660 31 58 3 152 8 210 10 58 3 143 8 190 10 111 6 238 12 615 30 651 31 722
34 835 40 152 8 494 24 630 30 69 3 204 10 300 15 96 5 251 12 344 16 l169 7
-42 -59 -42 -59 -367 -32 c-202 -17 -475 -40 -607 -52 -132 -11 -532 -45 -890
-76 -1354 -116 -1930 -165 -1937 -168 -6 -2 73 -90 433 -485 l49 -53 262 46
c256 45 2243 394 2723 478 151 27 241 39 242 32 2 -5 -3 -37 -10 -69 l-12 -60
-1448 -362 c-796 -199 -1449 -363 -1451 -365 -5 -6 523 -504 537 -507 7 -1
183 62 392 142 209 79 585 221 835 316 250 95 614 233 809 306 195 74 355 133
356 132 3 -6 34 -123 32 -124 -3 -3 -1003 -501 -1574 -784 -293 -145 -533
-267 -533 -270 0 -3 46 -40 103 -82 56 -41 183 -135 281 -208 99 -73 185 -133
191 -133 6 0 58 33 115 75 107 76 386 273 1399 986 79 56 148 99 152 96 5 -3
21 -25 35 -50 26 -45 26 -46 8 -64 -10 -10 -320 -302 -689 -650 -368 -347
-671 -635 -673 -639 -2 -7 486 -281 501 -281 5 0 35 35 427 500 509 603 663
785 670 793 4 4 24 -2 44 -14 l36 -21 -18 -32 c-41 -68 -323 -533 -452 -746
-244 -402 -350 -578 -350 -583 0 -10 32 -16 285 -53 143 -20 261 -33 262 -28
2 5 154 306 337 669 203 400 340 661 350 663 50 10 48 4 -151 -622 -107 -334
-192 -610 -189 -613 6 -7 487 274 506 296 8 9 64 217 124 462 60 244 113 449
118 455 5 7 20 14 34 17 l26 5 -4 -349 c-2 -192 0 -348 3 -347 4 2 93 98 198
213 149 165 191 216 191 237 0 15 -7 101 -15 190 l-16 162 23 18 c13 10 27 16
33 15 5 -2 25 -63 45 -135 19 -73 38 -131 42 -129 3 1 63 76 131 167 l126 165
-25 26 c-55 58 -3 147 71 119 53 -20 39 -100 -49 -277 -102 -202 -256 -414
-424 -581 -52 -51 -92 -95 -90 -96 1 -2 84 -63 183 -136 99 -73 206 -152 238
-176 33 -24 63 -44 67 -44 5 0 49 102 98 228 50 125 188 474 307 775 l216 548
-177 185 c-97 101 -180 184 -185 184 -5 0 -55 -26 -112 -58 -475 -269 -920
-366 -1242 -271 -570 169 -617 837 -93 1298 74 64 236 176 318 220 43 22 45
25 47 72 1 27 -1 50 -5 50 -31 6 -5702 4 -5700 -2z"/>
<path d="M9277 10267 c-1 -4 -1 -27 1 -51 4 -45 4 -45 93 -96 258 -149 437
-328 544 -545 71 -145 88 -212 89 -355 1 -144 -24 -230 -99 -340 -239 -352
-791 -379 -1424 -70 -77 38 -172 87 -211 110 -39 23 -75 40 -80 38 -5 -2 -87
-84 -184 -184 l-175 -181 120 -304 c66 -167 182 -462 259 -655 76 -193 160
-406 186 -473 26 -66 51 -121 56 -121 6 0 465 335 487 356 2 2 -47 57 -110
121 -222 227 -426 542 -474 732 -21 79 -11 101 45 101 30 0 43 -6 59 -27 24
-30 21 -55 -12 -91 -25 -27 -29 -20 86 -169 45 -60 96 -127 112 -150 17 -24
33 -43 36 -43 3 0 21 57 40 126 19 69 37 130 40 136 11 18 59 -22 59 -49 0
-13 -7 -98 -16 -188 l-16 -165 133 -147 c74 -80 161 -177 194 -214 33 -37 64
-68 69 -68 5 -1 6 139 2 344 l-7 345 23 0 c13 0 28 -4 34 -8 6 -4 62 -214 125
-467 l114 -460 254 -147 c140 -82 256 -146 259 -143 3 2 -82 277 -187 609
-106 333 -190 610 -186 616 3 5 16 10 28 10 19 0 67 -89 357 -671 l335 -671
50 6 c175 21 500 74 498 82 -1 5 -128 218 -284 474 -155 256 -334 551 -397
655 -63 105 -121 200 -129 211 -13 20 -11 23 22 43 20 11 37 21 39 21 1 0 68
-78 148 -172 768 -909 951 -1123 964 -1122 8 1 67 31 132 66 64 36 172 95 240
132 67 37 122 71 122 75 0 7 -1284 1224 -1353 1282 l-31 26 33 52 c18 28 35
51 37 51 4 0 242 -167 499 -350 44 -31 188 -133 320 -225 202 -142 513 -362
782 -551 l61 -44 286 211 c157 116 286 214 286 218 0 4 -472 242 -1050 529
-811 402 -1050 525 -1050 539 0 37 28 108 41 107 8 -1 221 -81 474 -177 253
-96 712 -270 1020 -387 308 -116 631 -239 718 -272 86 -33 162 -58 167 -56 16
5 539 502 535 507 -3 2 -656 167 -1452 366 l-1448 361 -12 65 c-6 35 -10 67
-8 70 2 3 73 -7 157 -22 84 -15 425 -76 758 -134 333 -58 909 -160 1280 -225
1120 -197 1032 -183 1046 -168 52 54 473 522 471 524 -3 3 -97 12 -422 39
-165 14 -325 27 -355 30 -30 3 -212 19 -405 35 -192 16 -372 32 -400 35 -27 2
-318 27 -645 55 -327 28 -723 62 -880 75 -157 14 -377 33 -489 42 l-203 17
-39 51 c-35 47 -51 83 -31 72 4 -3 84 -8 177 -11 94 -4 188 -9 210 -11 22 -2
112 -7 200 -10 88 -3 237 -10 330 -15 94 -5 226 -12 295 -15 133 -6 253 -12
415 -20 55 -2 150 -7 210 -10 61 -3 200 -10 310 -15 110 -5 254 -12 320 -15
66 -3 154 -7 195 -10 41 -3 134 -7 205 -10 72 -3 164 -7 205 -10 41 -2 131 -7
200 -10 69 -3 168 -8 220 -10 233 -13 500 -25 551 -25 l57 0 221 293 c121 161
221 295 221 297 0 8 -5700 5 -5703 -3z"/>
<path d="M8217 9840 c-24 -19 -42 -21 -284 -23 -142 -1 -264 -6 -272 -11 -22
-14 9 -26 304 -116 149 -45 276 -88 283 -94 7 -7 28 -88 46 -179 18 -92 35
-169 37 -171 5 -5 466 376 502 415 24 26 27 36 21 67 -13 78 -4 75 -290 105
-308 33 -314 33 -347 7z"/>
<path d="M6174 9805 c-21 -16 -42 -87 -33 -111 4 -12 124 -119 266 -238 211
-177 259 -213 265 -198 4 9 19 78 33 152 23 120 42 190 50 190 16 0 582 173
590 181 5 6 5 13 -1 19 -14 14 -1152 19 -1170 5z"/>
<path d="M6908 9581 c-48 -15 -93 -32 -99 -38 -18 -18 -78 -344 -69 -368 5
-11 111 -123 237 -248 l229 -228 108 290 c59 159 106 298 104 308 -2 10 -35
42 -73 71 -178 134 -313 230 -331 235 -10 3 -58 -7 -106 -22z"/>
<path d="M7781 9465 c-107 -80 -198 -148 -202 -152 -8 -8 204 -589 220 -606 8
-8 471 467 471 484 0 21 -61 325 -69 345 -7 16 -32 27 -103 47 -52 15 -100 27
-108 27 -8 -1 -102 -66 -209 -145z"/>
<path d="M5990 9530 c-96 -38 -176 -73 -178 -78 -2 -8 153 -430 162 -439 2 -2
22 45 46 104 23 60 48 114 54 121 7 7 89 33 182 57 93 25 175 47 182 50 11 4
-43 54 -253 235 -19 17 -27 15 -195 -50z"/>
<path d="M8794 9568 c-54 -42 -239 -201 -242 -208 -1 -4 79 -28 180 -53 100
-26 187 -52 194 -59 7 -7 31 -62 54 -122 28 -70 45 -104 50 -95 21 39 163 429
158 434 -9 9 -336 125 -352 125 -7 0 -26 -10 -42 -22z"/>
<path d="M7050 8089 c-245 -654 -446 -1193 -448 -1197 -1 -4 83 -105 188 -225
l191 -217 -111 -260 c-60 -143 -113 -272 -116 -285 -5 -20 6 -37 63 -98 37
-41 71 -75 74 -76 7 -1 16 19 129 294 43 105 88 212 99 239 l22 50 21 -22 22
-21 -112 -299 c-62 -164 -112 -304 -112 -310 0 -17 153 -183 161 -174 4 4 55
144 113 312 59 168 109 311 112 319 4 12 9 11 25 -6 l21 -20 -102 -343 c-55
-188 -100 -346 -98 -350 4 -11 302 -330 308 -330 3 0 76 75 164 166 l158 165
-92 345 c-88 332 -91 346 -74 365 10 11 21 16 25 12 3 -5 53 -151 110 -326
l103 -318 94 94 95 95 -112 293 c-61 162 -111 299 -111 305 0 6 8 18 19 28 21
19 14 33 171 -339 51 -121 95 -222 98 -225 5 -6 142 141 142 152 0 4 -54 134
-120 288 l-121 280 178 203 c98 111 184 210 190 218 11 13 -17 92 -163 470
-97 250 -209 540 -249 644 -268 696 -497 1281 -503 1287 -4 3 -207 -529 -452
-1183z"/>
<path d="M8275 6579 c-72 -77 -131 -144 -133 -149 -2 -4 74 -126 169 -271 139
-214 169 -266 161 -280 -8 -13 -5 -29 16 -67 l26 -50 -97 -105 -97 -104 -72
-7 c-119 -11 -118 -10 -57 -72 50 -51 52 -54 40 -81 -8 -15 -20 -43 -27 -60
-16 -37 -23 -38 92 10 l62 26 173 -49 c96 -28 177 -49 181 -48 5 2 -42 47
-102 102 -61 54 -110 101 -110 105 1 10 183 226 191 226 5 0 28 -41 53 -91
l44 -91 -30 -52 -30 -52 57 3 56 3 23 -40 c12 -22 50 -93 84 -158 l62 -118
-73 -97 c-40 -53 -90 -121 -111 -149 l-37 -53 67 26 c37 14 119 45 183 70
l116 44 48 -52 48 -53 -5 45 c-3 25 -11 104 -17 175 l-11 130 -99 175 -99 175
15 44 c8 24 13 46 11 48 -2 2 -22 0 -45 -6 l-41 -9 -50 86 c-27 48 -46 90 -42
94 4 4 46 21 92 37 47 16 92 32 101 35 12 6 28 -32 85 -209 38 -118 71 -215
74 -215 3 0 5 10 6 23 0 12 4 117 9 234 l8 211 58 58 c33 32 59 61 59 65 0 3
-37 9 -82 13 -79 7 -85 9 -123 46 l-40 40 -26 -58 -25 -58 -93 -28 c-51 -15
-94 -26 -95 -24 -1 2 -13 21 -26 43 -13 22 -25 41 -26 43 -1 2 -12 -2 -24 -8
-18 -9 -25 -9 -35 2 -7 7 -57 99 -110 203 -54 105 -127 244 -162 309 -34 65
-65 127 -68 137 -4 11 -10 19 -14 19 -3 0 -65 -63 -136 -141z"/>
<path d="M6607 6683 c-36 -68 -408 -748 -412 -752 -3 -2 -91 22 -196 53 -104
32 -193 56 -196 52 -3 -3 -14 -74 -24 -158 -10 -84 -27 -229 -38 -322 -11 -94
-19 -171 -18 -172 2 -2 54 87 117 197 76 133 118 198 127 195 7 -3 42 -8 78
-12 36 -4 65 -10 65 -14 0 -4 -8 -18 -18 -31 -11 -13 -98 -137 -195 -276
l-177 -252 0 -121 0 -120 27 -11 c15 -6 91 -28 168 -49 77 -21 153 -44 169
-50 24 -9 17 2 -42 67 -38 43 -79 87 -91 97 -11 11 -21 23 -21 28 0 11 337
609 351 623 7 7 36 -18 89 -75 44 -47 79 -87 79 -90 1 -3 -73 -86 -164 -184
-91 -98 -165 -181 -165 -183 0 -3 15 4 33 15 17 11 159 97 315 192 l283 173
-23 24 c-13 14 -85 82 -160 151 -76 69 -138 130 -138 134 0 6 404 527 457 589
12 15 -1 33 -118 160 -72 79 -135 145 -140 147 -4 2 -14 -9 -22 -25z"/>
</g>
</svg>
